<svg width="153" height="50" viewBox="0 0 153 50" version="1.1" xmlns="http://www.w3.org/2000/svg" xmlns:xlink="http://www.w3.org/1999/xlink">
<title>logo-text</title>
<desc>Created using Figma</desc>
<g id="Canvas" transform="translate(1105 -7993)">
<g id="logo/logo-text">
<g id="Group 3">
<mask id="mask0_outline" mask-type="alpha">
<g id="Clip 2">
<use xlink:href="#path0_fill" transform="translate(-1105 7993)" fill="#FFFFFF"/>
</g>
</mask>
<g id="Fill 1" mask="url(#mask0_outline)">
<use xlink:href="#path1_fill" transform="translate(-1105 7993)" fill="#0065AC"/>
</g>
</g>
<g id="Group">
<g id="Fill 4">
<use xlink:href="#path2_fill" transform="translate(-1043 8026.06)" fill="#231916"/>
</g>
<g id="Group 8">
<mask id="mask1_outline" mask-type="alpha">
<g id="Clip 7">
<use xlink:href="#path3_fill" transform="translate(-972.069 8002.41)" fill="#FFFFFF"/>
</g>
</mask>
<g id="Fill 6" mask="url(#mask1_outline)">
<use xlink:href="#path4_fill" transform="translate(-972.069 8002.41)" fill="#231916"/>
</g>
</g>
<g id="Fill 9">
<use xlink:href="#path5_fill" transform="translate(-1019.02 8002)" fill="#231916"/>
</g>
<g id="Fill 11">
<use xlink:href="#path6_fill" transform="translate(-1043 8002)" fill="#231916"/>
</g>
<g id="Fill 13">
<use xlink:href="#path7_fill" transform="translate(-995.042 8003.09)" fill="#231916"/>
</g>
</g>
</g>
</g>
<defs>
<path id="path0_fill" fill-rule="evenodd" d="M 50.0028 6.62465e-15L 0 6.62465e-15L 0 50L 50.0028 50L 50.0028 6.62465e-15Z"/>
<path id="path1_fill" fill-rule="evenodd" d="M 7.33376 23.8096L 0.0279701 23.8096C 0.011188 24.203 0 24.6058 0 24.9983C 0 25.3955 0.011188 25.7936 0.0279701 26.1926L 7.78874 26.1926C 7.58363 25.416 7.43166 24.6188 7.33376 23.8096L 7.33376 23.8096ZM 8.57003 14.2861L 2.40449 14.2861C 2.03901 15.0553 1.71549 15.8487 1.42554 16.6664L 7.78873 16.6664C 7.99385 15.8487 8.25956 15.0553 8.57003 14.2861L 8.57003 14.2861ZM 7.18649 21.428C 7.18649 20.6215 7.2387 19.8253 7.3338 19.0459L 0.713281 19.0459C 0.520287 19.8253 0.370181 20.6215 0.258301 21.428L 7.18649 21.428ZM 8.57008 28.5732L 0.258301 28.5732C 0.370181 29.3788 0.520287 30.1722 0.713281 30.9526L 9.7355 30.9526C 9.29264 30.1853 8.8992 29.3909 8.57008 28.5732L 8.57008 28.5732ZM 11.3596 33.3311L 1.42554 33.3311C 1.71549 34.1487 2.03901 34.9375 2.40449 35.7169L 13.6382 35.7169C 12.814 34.985 12.0504 34.1879 11.3596 33.3311L 11.3596 33.3311ZM 50.0029 24.9987C 50.0029 24.6062 49.9908 24.2034 49.9703 23.81L 41.3453 23.81C 41.0068 22.9858 40.6171 22.1914 40.1761 21.4278L 49.7428 21.4278C 49.6281 20.6214 49.4724 19.8251 49.2841 19.0457L 38.5408 19.0457C 37.8527 18.1852 37.0873 17.3927 36.2575 16.6664L 48.5783 16.6664C 48.2912 15.8487 47.9574 15.0553 47.5947 14.2861L 20.1747 14.2861L 20.1747 26.193L 29.8011 26.193L 29.8011 38.0999L 3.69751 38.0999C 4.2075 38.9241 4.7669 39.7193 5.36732 40.4736L 20.1626 40.4736L 20.1626 42.8585L 7.50797 42.8585C 8.3853 43.72 9.32789 44.5171 10.3255 45.2322L 20.1626 45.2322L 20.1626 47.619L 14.3392 47.619C 17.5781 49.1518 21.1881 50.0002 25.0005 50.0002C 28.8128 50.0002 32.4228 49.1518 35.6571 47.619L 32.9673 47.619C 34.1709 46.9459 35.2907 46.1487 36.319 45.2322L 39.6773 45.2322C 40.673 44.5171 41.6156 43.72 42.4948 42.8585L 38.5818 42.8585C 39.1785 42.1089 39.7193 41.3127 40.2059 40.4736L 44.6308 40.4736C 45.2322 39.7193 45.7906 38.9241 46.2988 38.0999L 41.363 38.0999C 41.6725 37.3232 41.9373 36.5308 42.1443 35.7168L 47.5947 35.7168C 47.9574 34.9374 48.2912 34.1486 48.5783 33.331L 42.5955 33.331C 42.6878 32.5581 42.7391 31.7758 42.7391 30.9759L 42.7391 30.9526L 49.2841 30.9526C 49.4724 30.1722 49.6281 29.3788 49.7428 28.5733L 42.589 28.5733C 42.4827 27.7593 42.3326 26.9668 42.1322 26.193L 49.9703 26.193C 49.9908 25.794 50.0029 25.3959 50.0029 24.9987L 50.0029 24.9987ZM 29.8013 7.13909L 42.495 7.13909C 41.6158 6.27854 40.6732 5.47953 39.6775 4.75977L 29.8013 4.75977L 29.8013 7.13909ZM 11.3595 9.521L 5.36732 9.521C 4.7669 10.2818 4.2075 11.0789 3.69751 11.9022L 9.73346 11.9022C 10.2155 11.0687 10.7609 10.2678 11.3595 9.521L 11.3595 9.521ZM 29.8013 11.9022L 46.299 11.9022C 45.7908 11.0789 45.2324 10.2818 44.6357 9.521L 29.8013 9.521L 29.8013 11.9022ZM 17.0039 4.75977L 10.3218 4.75977C 9.32238 5.47953 8.38445 6.27854 7.50806 7.13909L 13.6382 7.13909C 14.6656 6.23099 15.7909 5.43105 17.0039 4.75977L 17.0039 4.75977ZM 25.0005 0C 21.1882 0 17.5782 0.852156 14.3392 2.37373L 35.6571 2.37373C 32.4228 0.852156 28.8128 0 25.0005 0L 25.0005 0Z"/>
<path id="path2_fill" fill-rule="evenodd" d="M 89.3765 8.08965L 88.1113 8.08965L 88.1113 4.62557C 88.1113 4.10371 87.9114 3.70905 87.3406 3.70905C 86.8796 3.70905 86.4696 4.03077 86.2493 4.20378L 86.2493 8.08965L 84.9962 8.08965L 84.9962 4.62557C 84.9962 4.10371 84.8307 3.70905 84.2358 3.70905C 83.8016 3.70905 83.3638 4.04479 83.1407 4.21313L 83.1407 8.08965L 81.8737 8.08965L 81.8737 3.18345L 83.0691 2.85706L 83.1137 3.41445C 83.3638 3.18813 83.956 2.73828 84.735 2.73828C 85.4396 2.73828 85.8198 2.98892 86.0773 3.44064C 86.345 3.18813 86.9298 2.73828 87.8268 2.73828C 88.8717 2.73828 89.3765 3.41445 89.3765 4.31975L 89.3765 8.08965ZM 76.4781 5.47338C 76.4781 6.55264 77.0563 7.35693 77.945 7.35693C 78.763 7.35693 79.3989 6.55264 79.3989 5.47338C 79.3989 4.38384 78.763 3.57861 77.945 3.57861C 76.9875 3.57861 76.4781 4.37449 76.4781 5.47338L 76.4781 5.47338ZM 80.7804 5.47289C 80.7804 7.14414 79.5459 8.20375 77.9451 8.20375C 76.362 8.20375 75.1238 7.14414 75.1238 5.47289C 75.1238 3.79415 76.362 2.73828 77.9451 2.73828C 79.5459 2.73828 80.7804 3.79415 80.7804 5.47289L 80.7804 5.47289ZM 72.8871 2.73828C 73.9032 2.73828 74.3754 2.94123 74.6552 3.06281L 74.3875 3.85214C 74.1161 3.74365 73.7842 3.60524 73.0526 3.60524C 72.3656 3.60524 71.4807 4.22062 71.4807 5.47289C 71.4807 6.64566 72.3656 7.33212 73.0526 7.33212C 73.7842 7.33212 74.1263 7.19183 74.4098 7.09644L 74.7064 7.868C 74.434 8.01483 73.9413 8.20375 72.8732 8.20375C 71.1953 8.20375 70.1216 7.08896 70.1216 5.47289C 70.1216 3.81473 71.4602 2.73828 72.8871 2.73828L 72.8871 2.73828ZM 66.934 3.59619C 66.2489 3.59619 65.9096 4.13862 65.8241 4.81386L 68.0124 4.81386C 67.9454 4.03107 67.5671 3.59619 66.934 3.59619L 66.934 3.59619ZM 67.4442 7.33212C 68.2586 7.33212 68.6369 7.16752 68.8749 7.05997L 69.1575 7.76513C 68.8489 7.90448 68.3487 8.20375 67.0687 8.20375C 65.4726 8.20375 64.4547 7.19183 64.4547 5.51404C 64.4547 3.92041 65.5665 2.73828 66.9767 2.73828C 68.2437 2.73828 69.3518 3.59588 69.3518 5.59821L 65.8016 5.59821C 65.8016 6.66998 66.3492 7.33212 67.4442 7.33212L 67.4442 7.33212ZM 62.0823 0.503914L 63.3615 0.161621L 63.3615 8.08954L 62.0823 8.08954L 62.0823 0.503914ZM 58.6094 3.59619C 57.9252 3.59619 57.5803 4.13862 57.5004 4.81386L 59.6905 4.81386C 59.6254 4.03107 59.2369 3.59619 58.6094 3.59619L 58.6094 3.59619ZM 59.117 7.33212C 59.9304 7.33212 60.3125 7.16752 60.5477 7.05997L 60.834 7.76513C 60.5226 7.90448 60.0262 8.20375 58.7442 8.20375C 57.1444 8.20375 56.133 7.19183 56.133 5.51404C 56.133 3.92041 57.2383 2.73828 58.6504 2.73828C 59.9202 2.73828 61.0338 3.59588 61.0338 5.59821L 57.4753 5.59821C 57.4753 6.66998 58.0219 7.33212 59.117 7.33212L 59.117 7.33212ZM 50.9662 0.161621L 57.3452 0.161621L 57.3452 1.18008L 54.8445 1.18008L 54.8445 8.08954L 53.4836 8.08954L 53.4836 1.18008L 50.9662 1.18008L 50.9662 0.161621ZM 15.0679 2.85742L 15.0679 6.31589C 15.0679 6.83588 15.2454 7.21464 15.8524 7.21464C 16.4269 7.21464 16.8871 6.87329 17.113 6.70495L 17.113 2.85742L 18.3744 2.85742L 18.3744 7.75708L 17.1706 8.09002L 17.1344 7.53823C 16.8992 7.72621 16.2866 8.20411 15.3086 8.20411C 14.2991 8.20411 13.799 7.57658 13.799 6.59833L 13.799 2.85742L 15.0679 2.85742ZM 47.905 5.68066L 47.1743 5.74052C 46.4883 5.80224 45.9594 6.04634 45.9594 6.62244C 45.9594 7.14429 46.3795 7.32573 46.8295 7.32573C 47.2952 7.32573 47.6717 7.03581 47.905 6.87308L 47.905 5.68066ZM 46.3926 8.20375C 45.4035 8.20375 44.7881 7.62297 44.7881 6.75134C 44.7881 5.84698 45.4937 5.06513 46.8072 4.99498L 47.905 4.94355L 47.905 4.50399C 47.905 4.04479 47.7517 3.57812 46.9522 3.57812C 46.2373 3.57812 45.7419 3.81473 45.4937 3.92041L 45.2008 3.24611C 45.5215 3.09367 46.2513 2.73828 47.3296 2.73828C 48.5195 2.73828 49.1553 3.36675 49.1553 4.27767L 49.1553 7.26291C 49.1693 7.53787 49.2632 7.92879 49.345 8.08965L 48.0268 8.08965C 47.9497 7.94189 47.905 7.73613 47.919 7.62297C 47.6475 7.82498 47.1409 8.20375 46.3926 8.20375L 46.3926 8.20375ZM 39.8976 2.85742L 41.0679 2.85742L 42.2011 6.28877L 43.3817 2.85742L 44.447 2.85742L 42.427 8.17325L 41.7391 8.17325L 40.8067 5.49289L 39.7814 8.17325L 39.0962 8.17325L 37.2305 2.85742L 38.4502 2.85742L 39.6196 6.39632L 40.4098 4.33602L 39.8976 2.85742ZM 26.9379 4.42575C 26.9379 4.92797 27.2809 5.3217 27.8879 5.3217C 28.5219 5.3217 28.8287 4.92797 28.8287 4.42575C 28.8287 3.98245 28.5424 3.49707 27.8879 3.49707C 27.2809 3.49707 26.9379 3.98245 26.9379 4.42575L 26.9379 4.42575ZM 26.2677 9.3058C 26.29 9.8978 27.201 10.1157 27.9317 10.1157C 28.747 10.1157 29.5362 9.61816 29.6068 9.06732C 29.7026 8.46877 29.274 8.2041 28.759 8.2041L 27.0644 8.2041C 26.7985 8.36777 26.251 8.78675 26.2677 9.3058L 26.2677 9.3058ZM 27.4464 6.10042C 27.1294 6.10042 26.5457 6.19395 26.5457 6.62228C 26.5457 7.08896 27.0913 7.13011 27.4362 7.13011L 28.9198 7.13011C 30.0558 7.13011 30.8841 7.79879 30.7493 8.94725C 30.608 10.1294 29.274 10.9374 28.0358 10.9374C 26.6907 10.9374 25.2033 10.6092 25.2033 9.44667C 25.2033 8.65172 25.8159 8.21404 26.1469 8.04944C 25.9117 7.91476 25.4971 7.61643 25.4971 6.90752C 25.4971 6.27812 25.9674 5.74036 26.4174 5.59166C 26.1469 5.42051 25.7815 5.07822 25.7815 4.41514C 25.7815 3.63049 26.4285 2.73828 27.7411 2.73828C 28.3035 2.73828 28.5787 2.81216 28.7693 2.85706L 30.7744 2.85706L 30.7744 3.53042L 29.6542 3.53042C 29.7602 3.63984 30.0177 3.95595 30.0177 4.41514C 30.0177 5.52432 29.0147 6.10042 27.9661 6.10042L 27.4464 6.10042ZM 23.1712 8.08965L 23.1712 4.62557C 23.1712 4.10371 22.9564 3.72495 22.3392 3.72495C 21.7507 3.72495 21.2562 4.07846 21.0154 4.23652L 21.0154 8.08965L 19.754 8.08965L 19.754 3.18345L 20.9615 2.85706L 20.9968 3.40416C 21.2339 3.21151 21.7963 2.73828 22.8458 2.73828C 23.8665 2.73828 24.4345 3.38359 24.4345 4.34033L 24.4345 8.08965L 23.1712 8.08965ZM 35.1946 8.08954L 35.1946 4.62546C 35.1946 4.1036 34.9845 3.72484 34.3543 3.72484C 33.7863 3.72484 33.2732 4.07835 33.0445 4.23641L 33.0445 8.08954L 31.7802 8.08954L 31.7802 0.507655L 33.0445 0.161621L 33.0445 3.40405C 33.2778 3.20391 33.7984 2.73817 34.9102 2.73817C 35.9346 2.73817 36.4552 3.39377 36.4552 4.34022L 36.4552 8.08954L 35.1946 8.08954ZM 11.2072 8.08954L 11.2072 4.62546C 11.2072 4.1036 10.9943 3.72484 10.3669 3.72484C 9.80167 3.72484 9.28388 4.07835 9.05892 4.23641L 9.05892 8.08954L 7.79187 8.08954L 7.79187 0.507655L 9.05892 0.161621L 9.05892 3.40405C 9.2941 3.20391 9.81561 2.73817 10.9274 2.73817C 11.9509 2.73817 12.4724 3.39377 12.4724 4.34022L 12.4724 8.08954L 11.2072 8.08954ZM 6.81304 7.58282C 6.28038 7.90454 5.51346 8.23374 4.0419 8.23374C 1.64074 8.23374 0 6.35674 0 4.13464C 0 1.89103 1.64074 0 4.0419 0C 5.62129 0 6.35196 0.393731 6.69405 0.599481L 6.30641 1.55154C 6.04519 1.42435 5.38517 1.06242 4.14416 1.06242C 2.74046 1.06242 1.45482 2.34648 1.45482 4.13464C 1.45482 5.87697 2.76277 7.17787 4.21946 7.17787C 5.4456 7.17787 5.99964 6.87298 6.37985 6.68126L 6.81304 7.58282Z"/>
<path id="path3_fill" fill-rule="evenodd" d="M 20.0693 18.7834L 20.0693 0L 0 2.66453e-14L 0 18.7834L 20.0693 18.7834L 20.0693 18.7834Z"/>
<path id="path4_fill" fill-rule="evenodd" d="M 7.16856 0.512207C 6.8664 0.512207 6.66401 0.609707 6.50869 0.763457C 6.35714 0.919081 6.27618 1.10377 6.27618 1.40096C 6.27618 1.69158 6.36279 1.88283 6.50869 2.03564C 6.65742 2.1772 6.87204 2.28502 7.16856 2.28502L 17.8808 2.28502C 18.184 2.28502 18.3835 2.18377 18.5285 2.03564C 18.6894 1.87814 18.7582 1.68595 18.7582 1.39627C 18.7582 1.10377 18.681 0.919081 18.5238 0.757832C 18.3826 0.615332 18.1953 0.512207 17.8865 0.512207L 7.16856 0.512207ZM 5.86299 3.31201C 5.54388 3.31201 5.36785 3.40107 5.20218 3.56701C 5.05345 3.72076 4.96497 3.9767 4.96497 4.19889C 4.96497 4.4192 5.05345 4.67326 5.20218 4.82795C 5.36597 4.99013 5.54388 5.0792 5.86299 5.0792L 19.1931 5.0792C 19.4943 5.0792 19.6948 4.9742 19.8379 4.82795C 19.9932 4.67045 20.0695 4.41357 20.0695 4.19514C 20.0695 3.9767 19.9876 3.7217 19.8379 3.56701C 19.6892 3.42264 19.484 3.31201 19.2006 3.31201L 5.86299 3.31201ZM 7.16856 6.15137C 6.8664 6.15137 6.68472 6.23012 6.50869 6.40449C 6.35714 6.56574 6.27618 6.81512 6.27618 7.03449C 6.27618 7.25855 6.35526 7.50886 6.50869 7.66355C 6.67813 7.82949 6.8664 7.92418 7.16856 7.92418L 17.8808 7.92418C 18.1595 7.92418 18.3666 7.80511 18.5285 7.64949C 18.6829 7.4948 18.7582 7.25855 18.7582 7.03449C 18.7582 6.81512 18.6894 6.58355 18.5285 6.42887C 18.3788 6.27137 18.1595 6.15137 17.8865 6.15137L 7.16856 6.15137ZM 7.16856 8.94824C 6.90217 8.94824 6.67342 9.04293 6.50869 9.20512C 6.34867 9.36262 6.27618 9.62887 6.27618 9.82387C 6.27618 10.0273 6.3449 10.2964 6.50869 10.4632C 6.67813 10.632 6.90781 10.7211 7.16856 10.7211L 17.8808 10.7211C 18.1717 10.7211 18.392 10.6076 18.5285 10.4632C 18.6829 10.3048 18.7582 10.0554 18.7582 9.82387C 18.7582 9.59605 18.6894 9.33918 18.5285 9.18355C 18.3901 9.04105 18.1802 8.94824 17.8865 8.94824L 7.16856 8.94824ZM 8.46848 13.6885C 8.1955 13.6885 8.10231 13.7541 8.0383 13.8132C 7.97523 13.8816 7.90369 14.0129 7.90369 14.2022L 7.90369 16.1494C 7.90369 16.366 7.96111 16.4878 8.03547 16.5572C 8.13714 16.6585 8.28022 16.71 8.48543 16.71L 16.5366 16.71C 16.7625 16.71 16.9319 16.651 17.011 16.5675C 17.0938 16.4878 17.1287 16.3472 17.1287 16.155L 17.1287 14.2632C 17.1287 14.0644 17.0939 13.9341 17.0195 13.8554C 16.9075 13.7438 16.7672 13.6885 16.5601 13.6885L 8.46848 13.6885ZM 7.25988 11.9194L 17.5796 11.9194C 18.0042 11.9194 18.3478 12.0263 18.6085 12.2832C 18.8636 12.5429 18.985 12.7688 18.985 13.1166L 18.985 17.0682C 18.985 17.4357 18.8241 17.76 18.5285 18.0516C 18.2593 18.3235 17.9336 18.4913 17.5796 18.4913L 7.258 18.4913C 6.89559 18.4913 6.62825 18.3432 6.39857 18.0657C 6.14253 17.776 6.0531 17.4469 6.0531 17.0682L 6.0531 13.1166C 6.0531 12.796 6.18771 12.4894 6.40422 12.2672C 6.61978 12.0563 6.92665 11.9194 7.25988 11.9194L 7.25988 11.9194ZM 4.24572 0.0175275C 4.53 0.0803399 4.70979 0.24534 4.81334 0.383152C 4.94795 0.568777 4.99595 0.857526 4.94136 1.1594C 4.61472 2.73252 4.24007 4.10408 3.81459 5.18408L 3.81459 17.7925C 3.81459 18.0859 3.72328 18.3231 3.53878 18.5059C 3.36934 18.6775 3.14907 18.7656 2.8808 18.7834C 2.62758 18.7834 2.40825 18.6981 2.21998 18.5247C 2.05055 18.3428 1.95924 18.1 1.95924 17.7925L 1.95924 8.72032C 1.49987 9.38689 1.20241 9.46657 0.986848 9.49657C 0.798583 9.5247 0.525598 9.47595 0.33545 9.3072C 0.152833 9.15345 0.0163411 8.89939 0.00127988 8.68939C -0.01284 8.48314 0.0907058 8.18689 0.270499 7.94501C 1.78133 5.75783 2.74242 3.37096 3.1246 0.846276C 3.1679 0.540652 3.33169 0.289402 3.51619 0.16659C 3.66492 0.0662775 3.99438 -0.0434099 4.24572 0.0175275L 4.24572 0.0175275Z"/>
<path id="path5_fill" fill-rule="evenodd" d="M 13.5223 10.3189L 13.5223 10.0569L 10.7182 10.0569L 10.7182 11.8212L 17.7729 11.8212C 18.0213 11.8212 18.2103 11.8889 18.3609 12.0484C 18.5207 12.2128 18.591 12.5164 18.591 12.6913C 18.591 12.8683 18.5153 13.137 18.3664 13.3004C 18.2057 13.4638 18.0249 13.5672 17.7729 13.5672L 10.7182 13.5672L 10.7182 15.0106L 18.2806 15.0106C 18.5289 15.0106 18.7262 15.0919 18.8659 15.2446C 19.0129 15.4012 19.0942 15.6642 19.0942 15.8865C 19.0942 16.106 19.001 16.3545 18.8686 16.5285C 18.7317 16.7025 18.5289 16.7586 18.2806 16.7586L 10.7182 16.7586L 10.7182 18.6718C 10.7182 18.9696 10.6396 19.221 10.4634 19.4114C 10.2999 19.5835 10.0717 19.6879 9.81691 19.6879C 9.56398 19.6879 9.33935 19.5903 9.17225 19.4027C 8.99511 19.221 8.92388 18.9754 8.92388 18.6718L 8.92388 16.7586L 1.36146 16.7586C 1.10396 16.7586 0.919508 16.6803 0.760626 16.514C 0.608135 16.3545 0.534173 16.0432 0.534173 15.8865C 0.534173 15.7164 0.608135 15.4225 0.760626 15.2591C 0.907637 15.1073 1.10396 15.0106 1.36693 15.0106L 8.92388 15.0106L 8.92388 13.5672L 1.86732 13.5672C 1.61439 13.5672 1.40529 13.486 1.25097 13.3217C 1.09574 13.167 1.0446 12.876 1.0446 12.702C 1.0446 12.5309 1.10396 12.2447 1.26649 12.0707C 1.40255 11.9286 1.61439 11.8212 1.87463 11.8212L 4.32817 11.8212L 4.32817 10.0569L 0.829109 10.0569C 0.581655 10.0569 0.383509 9.97373 0.231018 9.81712C 0.078528 9.6547 0 9.3985 0 9.18001C 0 8.96442 0.0885723 8.73529 0.231018 8.56321C 0.371638 8.39885 0.581655 8.31378 0.833675 8.31378L 4.32817 8.31378L 4.32817 8.10882C 4.32817 7.80912 4.40031 7.55486 4.57289 7.37504C 4.74912 7.18941 4.96279 7.09467 5.2212 7.09467C 5.47687 7.09467 5.70606 7.19618 5.86951 7.37504C 6.04209 7.55486 6.12153 7.80912 6.12153 8.10882L 6.12701 8.31378L 8.92388 8.31378L 8.92388 6.4653L 1.87463 6.4653C 1.61439 6.4653 1.4135 6.36282 1.27288 6.2207C 1.11948 6.06118 1.0446 5.74698 1.0446 5.5836C 1.0446 5.42988 1.13044 5.11568 1.26832 4.96969C 1.40985 4.82274 1.61439 4.7251 1.87463 4.7251L 17.7729 4.7251C 18.0213 4.7251 18.2176 4.79471 18.3591 4.94746C 18.5098 5.10407 18.591 5.38347 18.591 5.5836C 18.591 5.79629 18.5006 6.02541 18.3664 6.19363C 18.2221 6.37345 18.0249 6.4653 17.7729 6.4653L 15.3193 6.4653L 15.3193 8.31378L 18.8084 8.31378C 19.0777 8.31378 19.2421 8.38048 19.3882 8.53807C 19.5589 8.71402 19.6192 8.95572 19.6192 9.18001C 19.6192 9.41397 19.5635 9.60636 19.3964 9.78908C 19.2421 9.95923 19.0832 10.0569 18.8084 10.0569L 15.3193 10.0569L 15.3157 10.3189C 15.3066 10.5886 15.2253 10.8187 15.0628 10.9985C 14.8993 11.1725 14.6674 11.2828 14.4144 11.2828C 14.1588 11.2828 13.9387 11.1812 13.7689 10.9927C 13.6027 10.8187 13.5369 10.5905 13.5251 10.3189L 13.5223 10.3189ZM 10.7181 8.31332L 13.5223 8.31332L 13.5223 6.46484L 10.7181 6.46484L 10.7181 8.31332ZM 6.12695 11.821L 8.92383 11.821L 8.92383 10.0557L 6.12695 10.0557L 6.12695 11.821ZM 19.0959 2.32317C 19.0959 2.53489 19.0128 2.78625 18.8768 2.93224C 18.7197 3.09562 18.5298 3.19907 18.2805 3.19907L 14.1824 3.19907L 14.1824 3.26578C 14.1824 3.56838 14.103 3.81974 13.9259 4.00343C 13.7615 4.18518 13.5369 4.28379 13.2821 4.28379C 13.0264 4.28379 12.8055 4.19195 12.6329 4.00343C 12.4539 3.81974 12.3845 3.56838 12.3845 3.26578L 12.3845 3.19907L 7.2455 3.19907L 7.2455 3.26578C 7.2455 3.56838 7.16879 3.81974 6.988 4.00826C 6.82729 4.18518 6.60084 4.29249 6.3479 4.29249C 6.08858 4.29249 5.86943 4.19195 5.69502 4.00343C 5.52062 3.81974 5.44666 3.57128 5.44666 3.26578L 5.44666 3.19907L 1.36138 3.19907C 1.09566 3.19907 0.899339 3.10239 0.754153 2.95447C 0.601663 2.79786 0.524048 2.53489 0.524048 2.32317C 0.524048 2.10661 0.614446 1.85041 0.754153 1.70636C 0.895686 1.55361 1.09566 1.45693 1.36138 1.45693L 5.44392 1.45693L 5.44392 1.02382C 5.44392 0.716382 5.52062 0.471788 5.69502 0.280366C 5.86578 0.105379 6.08858 0 6.3479 0C 6.59627 0 6.82181 0.116013 6.98617 0.280366C 7.16879 0.471788 7.24093 0.722183 7.24093 1.02382L 7.24093 1.45693L 12.3845 1.45693L 12.3845 1.02382C 12.3845 0.722183 12.4521 0.471788 12.6329 0.280366C 12.8055 0.105379 13.0264 0.00580067 13.2821 0.00580067C 13.5369 0.00580067 13.7615 0.116013 13.9259 0.280366C 14.103 0.471788 14.1788 0.729917 14.1788 1.02382L 14.1788 1.45693L 18.2805 1.45693C 18.5289 1.45693 18.7316 1.56328 18.8722 1.71023C 19.0128 1.86201 19.0959 2.11434 19.0959 2.32317L 19.0959 2.32317Z"/>
<path id="path6_fill" fill-rule="evenodd" d="M 17.001 4.50098C 17.176 4.50098 17.3384 4.56671 17.4662 4.69626C 17.5825 4.8171 17.6441 4.95147 17.6441 5.13515L 17.6441 13.5728C 17.6441 13.7352 17.5479 13.914 17.4624 13.9923C 17.3817 14.0774 17.2548 14.1654 17.052 14.1654L 10.8342 14.1654L 10.8342 4.50098L 17.001 4.50098ZM 2.14821 13.9875C 2.03384 13.8705 1.97424 13.74 1.97424 13.5728L 1.97424 5.13515C 1.97424 4.95727 2.03768 4.83353 2.15782 4.68852C 2.29335 4.54931 2.43944 4.50098 2.59515 4.50098L 8.78695 4.50098L 8.78695 14.1654L 2.60669 14.1654C 2.43079 14.1654 2.28085 14.1093 2.14821 13.9875L 2.14821 13.9875ZM 9.04644 0.280352C 8.87247 0.457263 8.78693 0.729881 8.78693 1.04504L 8.78693 2.51157L 1.85023 2.51157C 1.34082 2.51157 0.900608 2.68558 0.541133 3.03167C 0.186465 3.39709 0 3.83115 0 4.31935L 0 14.3492C 0 14.8209 0.186465 15.2482 0.558434 15.6117C 0.932326 15.9569 1.36965 16.1473 1.85023 16.1473L 8.78693 16.1473L 8.78693 18.5661C 8.78693 18.946 8.90515 19.2466 9.06375 19.4003C 9.20119 19.5347 9.45494 19.6875 9.81153 19.6875C 10.1604 19.6875 10.3978 19.5347 10.5324 19.4003C 10.6871 19.2466 10.8342 18.9392 10.8342 18.5661L 10.8342 16.1473L 17.7892 16.1473C 18.313 16.1473 18.8186 15.8718 19.0973 15.5905C 19.3722 15.3101 19.6192 14.7755 19.6192 14.296L 19.6192 4.36962C 19.6192 3.86982 19.4433 3.43963 19.1377 3.08097C 18.7945 2.68944 18.3361 2.51157 17.7834 2.51157L 10.8342 2.51157L 10.8342 1.04504C 10.8342 0.729881 10.7352 0.457263 10.5622 0.280352C 10.395 0.116008 10.0701 0 9.81153 0C 9.54336 0 9.23099 0.105374 9.04644 0.280352L 9.04644 0.280352Z"/>
<path id="path7_fill" fill-rule="evenodd" d="M 17.4419 4.15661C 17.5482 4.15661 17.6712 4.21866 17.7393 4.29041C 17.8082 4.36313 17.8474 4.48724 17.8521 4.61522L 17.8521 7.42605C 17.8521 7.7334 17.9807 8.01943 18.1345 8.17263C 18.2883 8.33649 18.5344 8.41405 18.7515 8.41405C 18.937 8.41405 19.2409 8.27443 19.3621 8.14063C 19.5019 8.00198 19.6165 7.6985 19.6165 7.42605L 19.6165 4.08098C 19.6426 3.68248 19.4749 3.2995 19.2055 3.01056C 18.937 2.73229 18.5549 2.55873 18.1857 2.56843L 10.6897 2.56843L 10.6897 1.58818L 17.1017 1.58818C 17.3291 1.58818 17.5137 1.47086 17.6405 1.3419C 17.7672 1.21004 17.8493 0.964736 17.8493 0.784394C 17.8493 0.612777 17.7672 0.342263 17.6405 0.204582C 17.509 0.0717492 17.3189 0 17.1017 0L 2.53925 0C 2.31181 0 2.12726 0.0795059 1.98557 0.224944C 1.83271 0.376199 1.76653 0.562359 1.76653 0.784394C 1.76653 1.01903 1.85694 1.23137 1.98557 1.36808C 2.10675 1.49413 2.2997 1.58818 2.53925 1.58818L 8.92704 1.58818L 8.92704 2.56843L 1.42724 2.56843C 1.06558 2.55873 0.678747 2.73229 0.414958 3.01056C 0.143712 3.2995 -0.02034 3.68248 0.00203082 4.08098L 0.00203082 7.42605C 0.00203082 7.6985 0.112953 8.00198 0.254634 8.14063C 0.375809 8.27443 0.678747 8.41405 0.86517 8.41405C 1.08235 8.41405 1.32843 8.33649 1.4841 8.17263C 1.64162 8.01943 1.76653 7.7334 1.76653 7.42605L 1.76653 4.61522C 1.77212 4.48724 1.81034 4.36313 1.87931 4.29041C 1.95109 4.21866 2.06387 4.15661 2.17293 4.15661L 8.92704 4.15661L 8.92704 7.59184C 8.92704 7.9089 9.0333 8.16778 9.18524 8.3297C 9.33624 8.48968 9.59723 8.575 9.80603 8.575C 10.0251 8.575 10.3 8.47514 10.4268 8.31806C 10.5704 8.15129 10.6897 7.9089 10.6897 7.59184L 10.6897 4.15661L 17.4419 4.15661ZM 17.9843 17.0081L 11.5294 17.0081C 11.2936 17.0081 11.0317 16.9626 10.862 16.7939C 10.7017 16.6164 10.7241 16.2722 10.7241 15.8378L 16.767 15.8378C 17.0709 15.8378 17.3598 15.7128 17.618 15.4529C 17.8725 15.1863 18.0151 14.8799 18.0235 14.5367L 18.0235 10.1755C 18.0151 9.85357 17.8986 9.59178 17.6935 9.38914C 17.4297 9.16419 17.1203 9.04688 16.7698 9.04688L 2.65383 9.04688C 2.3509 9.04688 2.09084 9.15741 1.88577 9.37362C 1.67418 9.60633 1.57538 9.8749 1.59402 10.1755L 1.59402 14.5328C 1.57538 14.8741 1.67884 15.1805 1.89416 15.45C 2.07592 15.6817 2.32853 15.8088 2.64358 15.8378L 8.89342 15.8378L 8.89342 16.5233C 8.89342 17.2845 9.29423 17.8585 9.64004 18.1542C 10.0231 18.4809 10.5433 18.5934 10.9497 18.5934L 17.9843 18.5934C 18.4047 18.5934 18.7431 18.2356 18.7431 17.7964C 18.7431 17.3562 18.4047 17.0081 17.9843 17.0081L 17.9843 17.0081ZM 16.261 13.2046L 16.261 13.8319C 16.261 13.9909 16.2163 14.1189 16.1417 14.1936C 16.0625 14.276 15.946 14.3177 15.78 14.3225L 10.7242 14.3225L 10.7242 13.2046L 16.261 13.2046ZM 15.7856 10.5586C 15.9543 10.5586 16.0792 10.6129 16.165 10.7157C 16.2321 10.7874 16.261 10.9115 16.261 11.0793L 16.261 11.693L 10.7242 11.693L 10.7242 10.5586L 15.7856 10.5586ZM 8.89352 13.2046L 8.89352 14.3225L 3.82654 14.3225C 3.66063 14.3225 3.54131 14.2799 3.46581 14.1936C 3.39031 14.1189 3.35303 14.0016 3.35303 13.8377L 3.35303 13.2046L 8.89352 13.2046ZM 3.35676 11.0182C 3.35676 10.8863 3.39031 10.7729 3.47141 10.6759C 3.5292 10.6022 3.64944 10.5586 3.82654 10.5586L 8.89352 10.5586L 8.89352 11.693L 3.35303 11.693C 3.35303 11.693 3.35676 11.0434 3.35676 11.0182L 3.35676 11.0182ZM 16.3839 6.95508C 16.5787 6.95508 16.7269 7.01616 16.8453 7.13542C 16.9637 7.25662 17.0196 7.42048 17.0196 7.62021C 17.0196 7.81219 16.9637 7.96538 16.8453 8.09628C 16.7269 8.23299 16.5787 8.29989 16.3839 8.29989L 13.1364 8.29989C 12.9313 8.29989 12.771 8.23299 12.6564 8.09628C 12.5417 7.98381 12.4783 7.81801 12.4783 7.62021C 12.4783 7.43211 12.5417 7.27213 12.6564 7.13542C 12.771 7.01616 12.9313 6.95508 13.1364 6.95508L 16.3839 6.95508ZM 15.2692 4.90674C 15.4659 4.90674 15.6159 4.96394 15.7352 5.08514C 15.848 5.2044 15.9068 5.37117 15.9068 5.5709C 15.9068 5.75512 15.848 5.91317 15.7352 6.05085C 15.6159 6.1798 15.4659 6.25155 15.2692 6.25155L 12.0236 6.25155C 11.8222 6.25155 11.6544 6.1798 11.5445 6.05085C 11.427 5.93062 11.3683 5.76967 11.3683 5.5709C 11.3683 5.38377 11.427 5.21991 11.5445 5.08514C 11.6544 4.96394 11.8222 4.90674 12.0236 4.90674L 15.2692 4.90674ZM 7.62114 6.95508C 7.81129 6.95508 7.96322 7.01616 8.07881 7.13542C 8.19159 7.25662 8.25684 7.42048 8.25684 7.62021C 8.25684 7.81219 8.19159 7.96538 8.07881 8.09628C 7.96322 8.23299 7.81129 8.29989 7.62114 8.29989L 4.37271 8.29989C 4.16671 8.29989 4.00453 8.23299 3.88988 8.09628C 3.77523 7.98381 3.7193 7.81801 3.7193 7.62021C 3.7193 7.43211 3.77523 7.27213 3.88988 7.13542C 4.00453 7.01616 4.16671 6.95508 4.37271 6.95508L 7.62114 6.95508ZM 6.50627 4.90674C 6.69735 4.90674 6.84835 4.96394 6.96767 5.08514C 7.08045 5.2044 7.13824 5.37117 7.13824 5.5709C 7.13824 5.75512 7.08045 5.91317 6.96767 6.05085C 6.84835 6.1798 6.69735 6.25155 6.50627 6.25155L 3.25691 6.25155C 3.05185 6.25155 2.89152 6.1798 2.77687 6.05085C 2.66036 5.93062 2.60443 5.76967 2.60443 5.5709C 2.60443 5.38377 2.66036 5.21991 2.77687 5.08514C 2.89152 4.96394 3.05185 4.90674 3.25691 4.90674L 6.50627 4.90674Z"/>
</defs>
</svg>
